<?xml version="1.0" encoding="utf-8"?>
<!-- Generator: Adobe Illustrator 25.0.1, SVG Export Plug-In . SVG Version: 6.00 Build 0)  -->
<svg version="1.1" id="Layer_1" xmlns="http://www.w3.org/2000/svg" xmlns:xlink="http://www.w3.org/1999/xlink" x="0px" y="0px"
	 viewBox="0 0 16 16" style="enable-background:new 0 0 16 16;" xml:space="preserve">
<style type="text/css">
	.st0{fill-rule:evenodd;clip-rule:evenodd;}
</style>
<g>
	<path class="st0" d="M4.4,15.2l3.2-4.1l1.2,1.5h1.9L7.6,8.5c-1.7,2.2-3.4,4.5-5.1,6.7H4.4L4.4,15.2z M8.1,8.1
		c1.8-2.5,3.7-4.9,5.6-7.3h2L10,8.1l3.5,4.5h-1.9C10.4,11.1,9.3,9.6,8.1,8.1z"/>
	<path class="st0" d="M5.8,3.4H4.5l3.1,4.1c1.7-2.2,3.4-4.5,5.1-6.7h-1.3c-1.3,1.7-2.6,3.3-3.9,5L5.8,3.4L5.8,3.4z M7.1,7.9
		c-1.8,2.5-3.7,4.9-5.6,7.3H0.3c1.9-2.4,3.8-4.8,5.6-7.3c-1.1-1.5-2.3-3-3.5-4.5h1.3C4.8,4.9,6,6.4,7.1,7.9z"/>
</g>
</svg>
