<?xml version="1.0" encoding="utf-8"?>
<!-- Generator: Adobe Illustrator 25.0.1, SVG Export Plug-In . SVG Version: 6.00 Build 0)  -->
<svg version="1.1" id="Layer_1" xmlns="http://www.w3.org/2000/svg" xmlns:xlink="http://www.w3.org/1999/xlink" x="0px" y="0px"
	 viewBox="0 0 1280 1280" style="enable-background:new 0 0 1280 1280;" xml:space="preserve">
<style type="text/css">
	.st0{fill-rule:evenodd;clip-rule:evenodd;fill:#CACACA;}
	.st1{fill-rule:evenodd;clip-rule:evenodd;fill:#64A76C;}
</style>
<g>
	<path class="st0" d="M378.9,1167l233-300.5l87.5,110h142L610.1,677.7c-124.7,162.8-250.3,326.5-375,489.3H378.9L378.9,1167z
		 M649.1,644.8C780.7,464.6,920.2,288,1059.6,113h145.5L787.7,646.5l254.6,327.4H903.7C818,864.7,733.1,754.7,649.1,644.8z"/>
	<path class="st1" d="M479.4,304.4h-92.7l229.5,297.9c124.7-162.8,250.3-326.5,375-489.3h-91.8c-95.3,123-189.7,244.2-283.2,368.1
		L479.4,304.4L479.4,304.4z M577.2,633.5c-131.6,181-271.1,356.8-408.8,533.5H74.9C214.3,990.3,352,814.5,485.4,633.5
		c-84-110-168.9-220-253.7-329.1h91.8C408.3,413.5,493.2,523.5,577.2,633.5z"/>
</g>
</svg>
